# xmcd CD database file
#
# Track frame offsets:
#	182
#	17980
#	33140
#	62045
#	76802
#	89977
#	108560
#	122202
#	136325
#	149107
#	163390
#	181997
#
# Disc length: 2599 seconds
#
# Revision: 4
# Processed by: cddbd v1.5.2PL0 Copyright (c) Steve Scherf et al.
# Submitted via: CDex 1.51
#
DISCID=b20a250c
DTITLE=Various Artist - Super Hits of the '70s: Didn't It Blow Your Mind! Vol. 10
DYEAR=1991
DGENRE=Soul
TTITLE0=Timmy Thomas - Why Can't We Live Together
TTITLE1=The Brighter Side Of Darkness - Love Jones
TTITLE2=The Chi-Lites - A Lonely Man
TTITLE3=Curtis Mayfield - Superfly
TTITLE4=Jerry Butler - One Night Affair
TTITLE5=War - The World Is A Ghetto
TTITLE6=Johnny Nash - Stir It Up
TTITLE7=The Four Tops - Ain't No Woman (Like The One I've Got)
TTITLE8=First Choice - Armed And Extremely Dangerous
TTITLE9=The Independents - Leaving Me
TTITLE10=Sylvia - Pillow Talk
TTITLE11=New York City - I'm Doin' Fine Now
EXTD=YEAR: 1991
EXTT0=
EXTT1=
EXTT2=
EXTT3=
EXTT4=
EXTT5=
EXTT6=
EXTT7=
EXTT8=
EXTT9=
EXTT10=
EXTT11=
PLAYORDER=
